<?xml version="1.0" encoding="UTF-8"?>
<svg width="100%" height="100%" viewBox="693.75 327.75 152.50 152.50" version="1.1" xmlns="http://www.w3.org/2000/svg" xmlns:xlink="http://www.w3.org/1999/xlink">
    <title>Frame 3</title>
    <defs>
        <path d="M0,0 L1538,0 L1538,805 L0,805 L0,0 Z" id="path-1"></path>
    </defs>
    <g id="Frame-3" stroke="none" fill="none" xlink:href="#path-1" fill-rule="evenodd">
        <use fill="none" xlink:href="#path-1"></use>
        <g id="Group" stroke-width="1" transform="translate(769.411, 402.2681) rotate(15) translate(-769.411, -402.2681)translate(694.9932, 299.7681)" fill="#000000">
            <path d="M92.6712329,0 C123.689965,0 148.835616,45.8908131 148.835616,102.5 C148.835616,159.109187 123.689965,205 92.6712329,205 C61.6525004,205 36.5068493,159.109187 36.5068493,102.5 C36.5068493,45.8908131 61.6525004,0 92.6712329,0 Z M86.3527397,30.890411 C70.8027196,30.890411 57.5679588,50.9103873 52.6229355,78.8842374 C54.9133642,76.056033 57.6302481,74.4178082 60.5438192,74.4178082 C68.7156103,74.4178082 75.3401559,87.3049544 75.3401559,103.202055 C75.3401559,119.099155 68.7156103,131.986301 60.5438192,131.986301 C57.6302481,131.986301 54.9133642,130.348077 52.6232893,127.519298 C57.5678443,155.493549 70.8026523,175.513699 86.3527397,175.513699 C106.127182,175.513699 122.157534,143.138673 122.157534,103.202055 C122.157534,63.2654367 106.127182,30.890411 86.3527397,30.890411 Z M29.0235834,47.739726 C29.542337,47.739726 30.0579119,47.7660625 30.5699705,47.8180821 C26.3027675,64.2696697 23.9017746,82.8426087 23.9017746,102.5 C23.9017746,123.24743 26.5764293,142.786803 31.2953252,159.899013 C30.5469215,160.0112 29.78871,160.068493 29.0235834,160.068493 C12.9943009,160.068493 -4.54747351e-13,134.922842 -4.54747351e-13,103.90411 C-4.54747351e-13,72.8853771 12.9943009,47.739726 29.0235834,47.739726 Z" id="Combined-Shape"></path>
        </g>
    </g>
</svg>